<mxfile host="Electron" modified="2025-02-03T20:28:24.396Z" agent="Mozilla/5.0 (Windows NT 10.0; Win64; x64) AppleWebKit/537.36 (KHTML, like Gecko) draw.io/24.0.4 Chrome/120.0.6099.109 Electron/28.1.0 Safari/537.36" etag="r8z4KHahexP86IkAlgHE" version="24.0.4" type="device">
  <diagram id="UpnjxEBypnCfxaO6hWaG" name="API Gateway">
    <mxGraphModel dx="2074" dy="836" grid="1" gridSize="10" guides="1" tooltips="1" connect="1" arrows="1" fold="1" page="1" pageScale="1" pageWidth="827" pageHeight="1169" math="0" shadow="0">
      <root>
        <mxCell id="0" />
        <mxCell id="1" parent="0" />
        <mxCell id="lg76CUhgI_q97KbNqbia-1" style="edgeStyle=orthogonalEdgeStyle;rounded=0;orthogonalLoop=1;jettySize=auto;html=1;entryX=0;entryY=0.5;entryDx=0;entryDy=0;exitX=0.25;exitY=0;exitDx=0;exitDy=0;fillColor=#d5e8d4;strokeColor=#82b366;strokeWidth=2;sketch=1;curveFitting=1;jiggle=2;" parent="1" source="lg76CUhgI_q97KbNqbia-4" target="lg76CUhgI_q97KbNqbia-10" edge="1">
          <mxGeometry relative="1" as="geometry">
            <Array as="points">
              <mxPoint x="300" y="273" />
              <mxPoint x="300" y="260" />
              <mxPoint x="353" y="260" />
              <mxPoint x="353" y="240" />
            </Array>
          </mxGeometry>
        </mxCell>
        <mxCell id="lg76CUhgI_q97KbNqbia-2" style="edgeStyle=orthogonalEdgeStyle;rounded=0;orthogonalLoop=1;jettySize=auto;html=1;strokeWidth=2;fillColor=#dae8fc;strokeColor=#6c8ebf;sketch=1;curveFitting=1;jiggle=2;" parent="1" source="lg76CUhgI_q97KbNqbia-4" target="lg76CUhgI_q97KbNqbia-11" edge="1">
          <mxGeometry relative="1" as="geometry">
            <Array as="points">
              <mxPoint x="353" y="360" />
              <mxPoint x="353" y="320" />
            </Array>
          </mxGeometry>
        </mxCell>
        <mxCell id="lg76CUhgI_q97KbNqbia-4" value="API Gateway" style="rounded=0;whiteSpace=wrap;html=1;rotation=90;verticalAlign=middle;horizontal=0;fontStyle=1;fillColor=#f5f5f5;fontColor=#333333;strokeColor=#666666;sketch=1;curveFitting=1;jiggle=2;" parent="1" vertex="1">
          <mxGeometry x="140" y="350" width="190" height="80" as="geometry" />
        </mxCell>
        <mxCell id="lg76CUhgI_q97KbNqbia-5" style="edgeStyle=orthogonalEdgeStyle;rounded=0;orthogonalLoop=1;jettySize=auto;html=1;fillColor=#f8cecc;strokeColor=#b85450;strokeWidth=2;sketch=1;curveFitting=1;jiggle=2;" parent="1" source="lg76CUhgI_q97KbNqbia-6" target="lg76CUhgI_q97KbNqbia-4" edge="1">
          <mxGeometry relative="1" as="geometry">
            <Array as="points">
              <mxPoint x="110" y="250" />
              <mxPoint x="110" y="390" />
            </Array>
          </mxGeometry>
        </mxCell>
        <mxCell id="lg76CUhgI_q97KbNqbia-6" value="User" style="shape=umlActor;verticalLabelPosition=bottom;verticalAlign=top;html=1;outlineConnect=0;fillColor=#f8cecc;strokeColor=#b85450;sketch=1;curveFitting=1;jiggle=2;" parent="1" vertex="1">
          <mxGeometry x="30" y="220" width="30" height="60" as="geometry" />
        </mxCell>
        <mxCell id="lg76CUhgI_q97KbNqbia-7" value="User" style="shape=umlActor;verticalLabelPosition=bottom;verticalAlign=top;html=1;outlineConnect=0;fillColor=#f8cecc;strokeColor=#b85450;sketch=1;curveFitting=1;jiggle=2;" parent="1" vertex="1">
          <mxGeometry x="30" y="500" width="30" height="60" as="geometry" />
        </mxCell>
        <mxCell id="lg76CUhgI_q97KbNqbia-8" style="edgeStyle=orthogonalEdgeStyle;rounded=0;orthogonalLoop=1;jettySize=auto;html=1;entryX=0.632;entryY=1.013;entryDx=0;entryDy=0;entryPerimeter=0;fillColor=#f8cecc;strokeColor=#b85450;strokeWidth=2;sketch=1;curveFitting=1;jiggle=2;" parent="1" source="lg76CUhgI_q97KbNqbia-7" target="lg76CUhgI_q97KbNqbia-4" edge="1">
          <mxGeometry relative="1" as="geometry">
            <Array as="points">
              <mxPoint x="110" y="530" />
              <mxPoint x="110" y="415" />
            </Array>
          </mxGeometry>
        </mxCell>
        <mxCell id="lg76CUhgI_q97KbNqbia-9" style="edgeStyle=orthogonalEdgeStyle;rounded=0;orthogonalLoop=1;jettySize=auto;html=1;strokeWidth=2;fillColor=#d5e8d4;strokeColor=#82b366;sketch=1;curveFitting=1;jiggle=2;" parent="1" source="lg76CUhgI_q97KbNqbia-10" target="lg76CUhgI_q97KbNqbia-14" edge="1">
          <mxGeometry relative="1" as="geometry" />
        </mxCell>
        <mxCell id="lg76CUhgI_q97KbNqbia-10" value="&lt;span style=&quot;font-size: 16px; font-weight: 700;&quot;&gt;API.Exemple.Core.08&lt;/span&gt;" style="rounded=1;whiteSpace=wrap;html=1;fillColor=#d5e8d4;strokeColor=#82b366;sketch=1;curveFitting=1;jiggle=2;" parent="1" vertex="1">
          <mxGeometry x="430" y="210" width="220" height="60" as="geometry" />
        </mxCell>
        <mxCell id="lg76CUhgI_q97KbNqbia-11" value="&lt;span style=&quot;font-size: 16px; font-weight: 700;&quot;&gt;API.&lt;/span&gt;&lt;b style=&quot;font-size: 16px;&quot;&gt;Customer&lt;/b&gt;&lt;span style=&quot;font-size: 16px; font-weight: 700;&quot;&gt;.Core&lt;/span&gt;" style="rounded=1;whiteSpace=wrap;html=1;fillColor=#dae8fc;strokeColor=#6c8ebf;sketch=1;curveFitting=1;jiggle=2;" parent="1" vertex="1">
          <mxGeometry x="430" y="290" width="240" height="60" as="geometry" />
        </mxCell>
        <mxCell id="lg76CUhgI_q97KbNqbia-12" style="edgeStyle=orthogonalEdgeStyle;rounded=0;orthogonalLoop=1;jettySize=auto;html=1;strokeWidth=2;fillColor=#ffe6cc;strokeColor=#d79b00;sketch=1;curveFitting=1;jiggle=2;entryX=0;entryY=0;entryDx=0;entryDy=27.5;entryPerimeter=0;" parent="1" source="lg76CUhgI_q97KbNqbia-13" target="lg76CUhgI_q97KbNqbia-14" edge="1">
          <mxGeometry relative="1" as="geometry">
            <mxPoint x="715" y="740" as="targetPoint" />
          </mxGeometry>
        </mxCell>
        <mxCell id="lg76CUhgI_q97KbNqbia-13" value="&lt;span style=&quot;font-size: 16px; font-weight: 700;&quot;&gt;API.HR.Core.08&lt;/span&gt;" style="rounded=1;whiteSpace=wrap;html=1;fillColor=#ffe6cc;strokeColor=#d79b00;sketch=1;curveFitting=1;jiggle=2;" parent="1" vertex="1">
          <mxGeometry x="430" y="370" width="240" height="60" as="geometry" />
        </mxCell>
        <mxCell id="lg76CUhgI_q97KbNqbia-14" value="SQL Server" style="shape=cylinder3;whiteSpace=wrap;html=1;boundedLbl=1;backgroundOutline=1;size=15;fillColor=#d5e8d4;strokeColor=#82b366;sketch=1;curveFitting=1;jiggle=2;" parent="1" vertex="1">
          <mxGeometry x="1196" y="400" width="90" height="80" as="geometry" />
        </mxCell>
        <mxCell id="lg76CUhgI_q97KbNqbia-16" style="edgeStyle=orthogonalEdgeStyle;rounded=0;orthogonalLoop=1;jettySize=auto;html=1;entryX=0;entryY=0;entryDx=0;entryDy=27.5;entryPerimeter=0;fillColor=#dae8fc;strokeColor=#6c8ebf;strokeWidth=2;sketch=1;curveFitting=1;jiggle=2;" parent="1" source="lg76CUhgI_q97KbNqbia-11" target="lg76CUhgI_q97KbNqbia-14" edge="1">
          <mxGeometry relative="1" as="geometry">
            <mxPoint x="670" y="322.5" as="targetPoint" />
            <Array as="points">
              <mxPoint x="873" y="320" />
              <mxPoint x="873" y="310" />
              <mxPoint x="1196" y="310" />
            </Array>
          </mxGeometry>
        </mxCell>
        <mxCell id="lg76CUhgI_q97KbNqbia-18" value="&lt;span style=&quot;color: rgb(51, 51, 51); font-weight: 700;&quot;&gt;API Gateway&lt;/span&gt;" style="rounded=0;whiteSpace=wrap;html=1;sketch=1;curveFitting=1;jiggle=2;" parent="1" vertex="1">
          <mxGeometry x="20" y="40" width="1300" height="60" as="geometry" />
        </mxCell>
        <mxCell id="lg76CUhgI_q97KbNqbia-19" value="&lt;b&gt;&lt;font style=&quot;font-size: 18px;&quot;&gt;1&lt;/font&gt;&lt;/b&gt;" style="ellipse;whiteSpace=wrap;html=1;aspect=fixed;sketch=1;curveFitting=1;jiggle=2;" parent="1" vertex="1">
          <mxGeometry x="27" y="45" width="50" height="50" as="geometry" />
        </mxCell>
        <mxCell id="lg76CUhgI_q97KbNqbia-20" value="&lt;font color=&quot;#333333&quot;&gt;&lt;b&gt;API&lt;/b&gt;&lt;/font&gt;" style="rounded=0;whiteSpace=wrap;html=1;sketch=1;curveFitting=1;jiggle=2;" parent="1" vertex="1">
          <mxGeometry x="20" y="720" width="1300" height="60" as="geometry" />
        </mxCell>
        <mxCell id="lg76CUhgI_q97KbNqbia-21" value="&lt;b&gt;&lt;font style=&quot;font-size: 18px;&quot;&gt;2&lt;/font&gt;&lt;/b&gt;" style="ellipse;whiteSpace=wrap;html=1;aspect=fixed;sketch=1;curveFitting=1;jiggle=2;" parent="1" vertex="1">
          <mxGeometry x="27" y="725" width="50" height="50" as="geometry" />
        </mxCell>
        <mxCell id="lg76CUhgI_q97KbNqbia-22" style="edgeStyle=orthogonalEdgeStyle;rounded=0;orthogonalLoop=1;jettySize=auto;html=1;entryX=1;entryY=0.75;entryDx=0;entryDy=0;fillColor=#dae8fc;strokeColor=#6c8ebf;strokeWidth=2;sketch=1;curveFitting=1;jiggle=2;" parent="1" source="lg76CUhgI_q97KbNqbia-23" target="lg76CUhgI_q97KbNqbia-36" edge="1">
          <mxGeometry relative="1" as="geometry">
            <Array as="points">
              <mxPoint x="580" y="945" />
              <mxPoint x="580" y="945" />
            </Array>
          </mxGeometry>
        </mxCell>
        <mxCell id="lg76CUhgI_q97KbNqbia-23" value="SQL DataBase" style="shape=cylinder3;whiteSpace=wrap;html=1;boundedLbl=1;backgroundOutline=1;size=15;sketch=1;curveFitting=1;jiggle=2;fillColor=#f5f5f5;fontColor=#333333;strokeColor=#666666;" parent="1" vertex="1">
          <mxGeometry x="650" y="830" width="150" height="130" as="geometry" />
        </mxCell>
        <mxCell id="lg76CUhgI_q97KbNqbia-24" style="edgeStyle=orthogonalEdgeStyle;rounded=0;orthogonalLoop=1;jettySize=auto;html=1;entryX=1;entryY=0.5;entryDx=0;entryDy=0;sketch=1;curveFitting=1;jiggle=2;fillColor=#dae8fc;strokeColor=#6c8ebf;strokeWidth=2;" parent="1" source="lg76CUhgI_q97KbNqbia-25" target="lg76CUhgI_q97KbNqbia-31" edge="1">
          <mxGeometry relative="1" as="geometry">
            <Array as="points">
              <mxPoint x="580" y="1140" />
              <mxPoint x="580" y="1140" />
            </Array>
          </mxGeometry>
        </mxCell>
        <mxCell id="lg76CUhgI_q97KbNqbia-25" value="Cache Redis" style="shape=cylinder3;whiteSpace=wrap;html=1;boundedLbl=1;backgroundOutline=1;size=15;sketch=1;curveFitting=1;jiggle=2;fillColor=#f5f5f5;fontColor=#333333;strokeColor=#666666;" parent="1" vertex="1">
          <mxGeometry x="640" y="1070" width="115" height="100" as="geometry" />
        </mxCell>
        <mxCell id="lg76CUhgI_q97KbNqbia-26" style="edgeStyle=orthogonalEdgeStyle;rounded=0;orthogonalLoop=1;jettySize=auto;html=1;entryX=0;entryY=0.25;entryDx=0;entryDy=0;fillColor=#e1d5e7;strokeColor=#9673a6;sketch=1;curveFitting=1;jiggle=2;strokeWidth=2;" parent="1" source="lg76CUhgI_q97KbNqbia-27" target="lg76CUhgI_q97KbNqbia-36" edge="1">
          <mxGeometry relative="1" as="geometry" />
        </mxCell>
        <mxCell id="lg76CUhgI_q97KbNqbia-27" value="User" style="shape=umlActor;verticalLabelPosition=bottom;verticalAlign=top;html=1;outlineConnect=0;fillColor=#f8cecc;strokeColor=#b85450;sketch=1;curveFitting=1;jiggle=2;" parent="1" vertex="1">
          <mxGeometry x="20" y="890" width="30" height="60" as="geometry" />
        </mxCell>
        <mxCell id="lg76CUhgI_q97KbNqbia-28" style="edgeStyle=orthogonalEdgeStyle;rounded=0;orthogonalLoop=1;jettySize=auto;html=1;entryX=0.017;entryY=0.133;entryDx=0;entryDy=0;entryPerimeter=0;strokeWidth=2;fillColor=#e1d5e7;strokeColor=#9673a6;sketch=1;curveFitting=1;jiggle=2;" parent="1" source="lg76CUhgI_q97KbNqbia-29" target="lg76CUhgI_q97KbNqbia-31" edge="1">
          <mxGeometry relative="1" as="geometry" />
        </mxCell>
        <mxCell id="lg76CUhgI_q97KbNqbia-29" value="User" style="shape=umlActor;verticalLabelPosition=bottom;verticalAlign=top;html=1;outlineConnect=0;fillColor=#f8cecc;strokeColor=#b85450;sketch=1;curveFitting=1;jiggle=2;" parent="1" vertex="1">
          <mxGeometry x="20" y="1090" width="30" height="60" as="geometry" />
        </mxCell>
        <mxCell id="lg76CUhgI_q97KbNqbia-30" style="edgeStyle=orthogonalEdgeStyle;rounded=0;orthogonalLoop=1;jettySize=auto;html=1;fillColor=#e1d5e7;strokeColor=#9673a6;strokeWidth=2;sketch=1;curveFitting=1;jiggle=2;" parent="1" source="lg76CUhgI_q97KbNqbia-31" target="lg76CUhgI_q97KbNqbia-25" edge="1">
          <mxGeometry relative="1" as="geometry">
            <Array as="points">
              <mxPoint x="470" y="1120" />
              <mxPoint x="470" y="1120" />
            </Array>
          </mxGeometry>
        </mxCell>
        <mxCell id="lg76CUhgI_q97KbNqbia-31" value="Query&amp;nbsp;Handler" style="rounded=0;whiteSpace=wrap;html=1;fillColor=#fff2cc;strokeColor=#d6b656;sketch=1;curveFitting=1;jiggle=2;" parent="1" vertex="1">
          <mxGeometry x="290" y="1110" width="120" height="60" as="geometry" />
        </mxCell>
        <mxCell id="lg76CUhgI_q97KbNqbia-32" style="edgeStyle=orthogonalEdgeStyle;rounded=0;orthogonalLoop=1;jettySize=auto;html=1;entryX=1;entryY=1;entryDx=0;entryDy=0;entryPerimeter=0;fillColor=#dae8fc;strokeColor=#6c8ebf;strokeWidth=2;sketch=1;curveFitting=1;jiggle=2;" parent="1" source="lg76CUhgI_q97KbNqbia-31" target="lg76CUhgI_q97KbNqbia-29" edge="1">
          <mxGeometry relative="1" as="geometry">
            <Array as="points">
              <mxPoint x="170" y="1140" />
              <mxPoint x="170" y="1150" />
            </Array>
          </mxGeometry>
        </mxCell>
        <mxCell id="lg76CUhgI_q97KbNqbia-33" value="GET" style="text;html=1;align=center;verticalAlign=middle;resizable=0;points=[];autosize=1;strokeColor=none;fillColor=none;sketch=1;curveFitting=1;jiggle=2;" parent="1" vertex="1">
          <mxGeometry x="105" y="1088" width="50" height="30" as="geometry" />
        </mxCell>
        <mxCell id="lg76CUhgI_q97KbNqbia-34" style="edgeStyle=orthogonalEdgeStyle;rounded=0;orthogonalLoop=1;jettySize=auto;html=1;entryX=0.06;entryY=0.954;entryDx=0;entryDy=0;entryPerimeter=0;fillColor=#e1d5e7;strokeColor=#9673a6;strokeWidth=2;sketch=1;curveFitting=1;jiggle=2;" parent="1" source="lg76CUhgI_q97KbNqbia-31" target="lg76CUhgI_q97KbNqbia-23" edge="1">
          <mxGeometry relative="1" as="geometry">
            <Array as="points">
              <mxPoint x="350" y="1080" />
              <mxPoint x="580" y="1080" />
              <mxPoint x="580" y="970" />
              <mxPoint x="659" y="970" />
            </Array>
          </mxGeometry>
        </mxCell>
        <mxCell id="lg76CUhgI_q97KbNqbia-35" style="edgeStyle=orthogonalEdgeStyle;rounded=0;orthogonalLoop=1;jettySize=auto;html=1;fillColor=#dae8fc;strokeColor=#6c8ebf;strokeWidth=2;sketch=1;curveFitting=1;jiggle=2;" parent="1" source="lg76CUhgI_q97KbNqbia-36" target="lg76CUhgI_q97KbNqbia-27" edge="1">
          <mxGeometry relative="1" as="geometry">
            <Array as="points">
              <mxPoint x="165" y="930" />
              <mxPoint x="165" y="940" />
            </Array>
          </mxGeometry>
        </mxCell>
        <mxCell id="lg76CUhgI_q97KbNqbia-36" value="Command" style="rounded=0;whiteSpace=wrap;html=1;fillColor=#d5e8d4;strokeColor=#82b366;sketch=1;curveFitting=1;jiggle=2;" parent="1" vertex="1">
          <mxGeometry x="280" y="900" width="120" height="60" as="geometry" />
        </mxCell>
        <mxCell id="lg76CUhgI_q97KbNqbia-37" style="edgeStyle=orthogonalEdgeStyle;rounded=0;orthogonalLoop=1;jettySize=auto;html=1;entryX=0.007;entryY=0.215;entryDx=0;entryDy=0;entryPerimeter=0;fillColor=#e1d5e7;strokeColor=#9673a6;sketch=1;curveFitting=1;jiggle=2;strokeWidth=2;" parent="1" source="lg76CUhgI_q97KbNqbia-36" target="lg76CUhgI_q97KbNqbia-23" edge="1">
          <mxGeometry relative="1" as="geometry" />
        </mxCell>
        <mxCell id="lg76CUhgI_q97KbNqbia-38" style="edgeStyle=orthogonalEdgeStyle;rounded=0;orthogonalLoop=1;jettySize=auto;html=1;entryX=0.217;entryY=0.05;entryDx=0;entryDy=0;entryPerimeter=0;fillColor=#d5e8d4;strokeColor=#82b366;sketch=1;curveFitting=1;jiggle=2;strokeWidth=2;" parent="1" source="lg76CUhgI_q97KbNqbia-36" target="lg76CUhgI_q97KbNqbia-25" edge="1">
          <mxGeometry relative="1" as="geometry">
            <Array as="points">
              <mxPoint x="340" y="1000" />
              <mxPoint x="665" y="1000" />
            </Array>
          </mxGeometry>
        </mxCell>
        <mxCell id="lg76CUhgI_q97KbNqbia-39" value="POST / PUT / DELETE" style="text;html=1;align=center;verticalAlign=middle;resizable=0;points=[];autosize=1;strokeColor=none;fillColor=none;sketch=1;curveFitting=1;jiggle=2;" parent="1" vertex="1">
          <mxGeometry x="85" y="868" width="150" height="30" as="geometry" />
        </mxCell>
        <mxCell id="lg76CUhgI_q97KbNqbia-40" value="&lt;font color=&quot;#333333&quot;&gt;&lt;b&gt;Server&lt;/b&gt;&lt;/font&gt;" style="rounded=0;whiteSpace=wrap;html=1;" parent="1" vertex="1">
          <mxGeometry x="20" y="1230" width="1300" height="60" as="geometry" />
        </mxCell>
        <mxCell id="lg76CUhgI_q97KbNqbia-41" value="&lt;b&gt;&lt;font style=&quot;font-size: 18px;&quot;&gt;3&lt;/font&gt;&lt;/b&gt;" style="ellipse;whiteSpace=wrap;html=1;aspect=fixed;" parent="1" vertex="1">
          <mxGeometry x="27" y="1235" width="50" height="50" as="geometry" />
        </mxCell>
        <mxCell id="lg76CUhgI_q97KbNqbia-42" style="edgeStyle=orthogonalEdgeStyle;rounded=0;orthogonalLoop=1;jettySize=auto;html=1;sketch=1;curveFitting=1;jiggle=2;strokeWidth=2;fillColor=#dae8fc;strokeColor=#6c8ebf;" parent="1" source="lg76CUhgI_q97KbNqbia-43" target="lg76CUhgI_q97KbNqbia-45" edge="1">
          <mxGeometry relative="1" as="geometry">
            <Array as="points">
              <mxPoint x="700" y="1598" />
              <mxPoint x="703" y="1598" />
            </Array>
          </mxGeometry>
        </mxCell>
        <mxCell id="lg76CUhgI_q97KbNqbia-43" value="SQL DataBase" style="shape=cylinder3;whiteSpace=wrap;html=1;boundedLbl=1;backgroundOutline=1;size=15;sketch=1;curveFitting=1;jiggle=2;fillColor=#dae8fc;strokeColor=#6c8ebf;" parent="1" vertex="1">
          <mxGeometry x="640" y="1375" width="150" height="130" as="geometry" />
        </mxCell>
        <mxCell id="lg76CUhgI_q97KbNqbia-44" style="edgeStyle=orthogonalEdgeStyle;rounded=0;orthogonalLoop=1;jettySize=auto;html=1;entryX=1;entryY=0.75;entryDx=0;entryDy=0;strokeWidth=2;sketch=1;curveFitting=1;jiggle=2;fillColor=#dae8fc;strokeColor=#6c8ebf;" parent="1" source="lg76CUhgI_q97KbNqbia-45" target="lg76CUhgI_q97KbNqbia-50" edge="1">
          <mxGeometry relative="1" as="geometry" />
        </mxCell>
        <mxCell id="lg76CUhgI_q97KbNqbia-45" value="Cache Redis" style="shape=cylinder3;whiteSpace=wrap;html=1;boundedLbl=1;backgroundOutline=1;size=15;sketch=1;curveFitting=1;jiggle=2;fillColor=#dae8fc;strokeColor=#6c8ebf;" parent="1" vertex="1">
          <mxGeometry x="645" y="1690" width="115" height="100" as="geometry" />
        </mxCell>
        <mxCell id="lg76CUhgI_q97KbNqbia-46" style="edgeStyle=orthogonalEdgeStyle;rounded=0;orthogonalLoop=1;jettySize=auto;html=1;sketch=1;curveFitting=1;jiggle=2;strokeWidth=2;fillColor=#dae8fc;strokeColor=#6c8ebf;" parent="1" source="lg76CUhgI_q97KbNqbia-47" target="lg76CUhgI_q97KbNqbia-49" edge="1">
          <mxGeometry relative="1" as="geometry">
            <Array as="points">
              <mxPoint x="80" y="1390" />
            </Array>
          </mxGeometry>
        </mxCell>
        <mxCell id="lg76CUhgI_q97KbNqbia-47" value="Client" style="rounded=0;whiteSpace=wrap;html=1;rotation=90;verticalAlign=middle;horizontal=0;fontStyle=1;fillColor=#dae8fc;strokeColor=#6c8ebf;sketch=1;curveFitting=1;jiggle=2;" parent="1" vertex="1">
          <mxGeometry x="-15" y="1512" width="190" height="80" as="geometry" />
        </mxCell>
        <mxCell id="lg76CUhgI_q97KbNqbia-48" style="edgeStyle=orthogonalEdgeStyle;rounded=0;orthogonalLoop=1;jettySize=auto;html=1;strokeWidth=2;sketch=1;curveFitting=1;jiggle=2;fillColor=#dae8fc;strokeColor=#6c8ebf;" parent="1" source="lg76CUhgI_q97KbNqbia-49" target="lg76CUhgI_q97KbNqbia-43" edge="1">
          <mxGeometry relative="1" as="geometry" />
        </mxCell>
        <mxCell id="lg76CUhgI_q97KbNqbia-49" value="Domain Model" style="rounded=1;whiteSpace=wrap;html=1;fillColor=#dae8fc;strokeColor=#6c8ebf;sketch=1;curveFitting=1;jiggle=2;" parent="1" vertex="1">
          <mxGeometry x="320" y="1370" width="120" height="60" as="geometry" />
        </mxCell>
        <mxCell id="lg76CUhgI_q97KbNqbia-50" value="Read Queries" style="rounded=1;whiteSpace=wrap;html=1;fillColor=#dae8fc;strokeColor=#6c8ebf;sketch=1;curveFitting=1;jiggle=2;" parent="1" vertex="1">
          <mxGeometry x="320" y="1690" width="120" height="60" as="geometry" />
        </mxCell>
        <mxCell id="lg76CUhgI_q97KbNqbia-51" value="Write API" style="shape=note;whiteSpace=wrap;html=1;backgroundOutline=1;darkOpacity=0.05;sketch=1;curveFitting=1;jiggle=2;fillColor=#fff2cc;strokeColor=#d6b656;" parent="1" vertex="1">
          <mxGeometry x="160" y="1390" width="80" height="100" as="geometry" />
        </mxCell>
        <mxCell id="lg76CUhgI_q97KbNqbia-52" style="edgeStyle=orthogonalEdgeStyle;rounded=0;orthogonalLoop=1;jettySize=auto;html=1;entryX=0.008;entryY=0.617;entryDx=0;entryDy=0;entryPerimeter=0;sketch=1;curveFitting=1;jiggle=2;strokeWidth=2;fillColor=#dae8fc;strokeColor=#6c8ebf;" parent="1" source="lg76CUhgI_q97KbNqbia-47" target="lg76CUhgI_q97KbNqbia-50" edge="1">
          <mxGeometry relative="1" as="geometry">
            <Array as="points">
              <mxPoint x="80" y="1727" />
            </Array>
          </mxGeometry>
        </mxCell>
        <mxCell id="lg76CUhgI_q97KbNqbia-53" value="Read API" style="shape=note;whiteSpace=wrap;html=1;backgroundOutline=1;darkOpacity=0.05;sketch=1;curveFitting=1;jiggle=2;fillColor=#fff2cc;strokeColor=#d6b656;" parent="1" vertex="1">
          <mxGeometry x="160" y="1628" width="80" height="100" as="geometry" />
        </mxCell>
        <mxCell id="lg76CUhgI_q97KbNqbia-54" value="Sync" style="shape=note;whiteSpace=wrap;html=1;backgroundOutline=1;darkOpacity=0.05;sketch=1;curveFitting=1;jiggle=2;fillColor=#fff2cc;strokeColor=#d6b656;" parent="1" vertex="1">
          <mxGeometry x="710" y="1540" width="80" height="100" as="geometry" />
        </mxCell>
        <mxCell id="lg76CUhgI_q97KbNqbia-55" value="Command" style="text;html=1;align=center;verticalAlign=middle;resizable=0;points=[];autosize=1;strokeColor=none;fillColor=none;strokeWidth=12;" parent="1" vertex="1">
          <mxGeometry x="80" y="1358" width="80" height="30" as="geometry" />
        </mxCell>
        <mxCell id="lg76CUhgI_q97KbNqbia-56" value="Query" style="text;html=1;align=center;verticalAlign=middle;resizable=0;points=[];autosize=1;strokeColor=none;fillColor=none;strokeWidth=12;" parent="1" vertex="1">
          <mxGeometry x="90" y="1728" width="60" height="30" as="geometry" />
        </mxCell>
        <mxCell id="lg76CUhgI_q97KbNqbia-57" value="Queries" style="text;html=1;align=center;verticalAlign=middle;resizable=0;points=[];autosize=1;strokeColor=none;fillColor=none;strokeWidth=12;" parent="1" vertex="1">
          <mxGeometry x="515" y="1750" width="70" height="30" as="geometry" />
        </mxCell>
        <mxCell id="lg76CUhgI_q97KbNqbia-58" value="Commands" style="text;html=1;align=center;verticalAlign=middle;resizable=0;points=[];autosize=1;strokeColor=none;fillColor=none;strokeWidth=12;" parent="1" vertex="1">
          <mxGeometry x="510" y="1440" width="80" height="30" as="geometry" />
        </mxCell>
        <mxCell id="5tMwFqsSyj8gy270x245-3" style="edgeStyle=orthogonalEdgeStyle;rounded=0;orthogonalLoop=1;jettySize=auto;html=1;strokeWidth=2;fillColor=#fff2cc;strokeColor=#d6b656;sketch=1;curveFitting=1;jiggle=2;" parent="1" edge="1">
          <mxGeometry relative="1" as="geometry">
            <mxPoint x="275" y="400" as="sourcePoint" />
            <mxPoint x="430" y="400" as="targetPoint" />
            <Array as="points">
              <mxPoint x="360" y="400" />
              <mxPoint x="360" y="400" />
            </Array>
          </mxGeometry>
        </mxCell>
        <mxCell id="MnZ8lZNe-N6XdQyVDCFG-1" value="&lt;span style=&quot;color: rgb(0, 0, 0); font-size: 16px; font-weight: 700;&quot;&gt;API.Freelancer.Core.08&lt;/span&gt;" style="rounded=1;whiteSpace=wrap;html=1;fillColor=#f5f5f5;strokeColor=#666666;sketch=1;curveFitting=1;jiggle=2;fontColor=#333333;" parent="1" vertex="1">
          <mxGeometry x="430" y="450" width="240" height="60" as="geometry" />
        </mxCell>
        <mxCell id="MnZ8lZNe-N6XdQyVDCFG-2" style="edgeStyle=orthogonalEdgeStyle;rounded=0;orthogonalLoop=1;jettySize=auto;html=1;strokeWidth=2;fillColor=#f5f5f5;strokeColor=#666666;sketch=1;curveFitting=1;jiggle=2;entryX=0;entryY=0.5;entryDx=0;entryDy=0;exitX=1;exitY=0.25;exitDx=0;exitDy=0;" parent="1" source="lg76CUhgI_q97KbNqbia-4" target="MnZ8lZNe-N6XdQyVDCFG-1" edge="1">
          <mxGeometry relative="1" as="geometry">
            <mxPoint x="265" y="520" as="sourcePoint" />
            <mxPoint x="420" y="520" as="targetPoint" />
            <Array as="points" />
          </mxGeometry>
        </mxCell>
        <mxCell id="Docn9kYZ7vSpXgYzr5KD-1" value="&lt;span style=&quot;font-size: 16px; font-weight: 700;&quot;&gt;API.Clinic.Core.08&lt;/span&gt;" style="rounded=1;whiteSpace=wrap;html=1;fillColor=#f8cecc;strokeColor=#b85450;sketch=1;curveFitting=1;jiggle=2;" parent="1" vertex="1">
          <mxGeometry x="430" y="540" width="240" height="60" as="geometry" />
        </mxCell>
        <mxCell id="Docn9kYZ7vSpXgYzr5KD-2" style="edgeStyle=orthogonalEdgeStyle;rounded=0;orthogonalLoop=1;jettySize=auto;html=1;strokeWidth=2;fillColor=#f8cecc;strokeColor=#b85450;sketch=1;curveFitting=1;jiggle=2;entryX=0;entryY=0.5;entryDx=0;entryDy=0;exitX=1.016;exitY=0.913;exitDx=0;exitDy=0;exitPerimeter=0;" parent="1" source="lg76CUhgI_q97KbNqbia-4" target="Docn9kYZ7vSpXgYzr5KD-1" edge="1">
          <mxGeometry relative="1" as="geometry">
            <mxPoint x="255" y="495" as="sourcePoint" />
            <mxPoint x="420" y="600" as="targetPoint" />
            <Array as="points">
              <mxPoint x="202" y="490" />
              <mxPoint x="230" y="490" />
              <mxPoint x="230" y="570" />
            </Array>
          </mxGeometry>
        </mxCell>
        <mxCell id="Docn9kYZ7vSpXgYzr5KD-4" style="edgeStyle=orthogonalEdgeStyle;rounded=0;orthogonalLoop=1;jettySize=auto;html=1;strokeWidth=2;fillColor=#f5f5f5;strokeColor=#666666;sketch=1;curveFitting=1;jiggle=2;exitX=1;exitY=0.5;exitDx=0;exitDy=0;" parent="1" source="MnZ8lZNe-N6XdQyVDCFG-1" target="lg76CUhgI_q97KbNqbia-14" edge="1">
          <mxGeometry relative="1" as="geometry">
            <mxPoint x="680" y="480" as="sourcePoint" />
            <mxPoint x="1206" y="508" as="targetPoint" />
            <Array as="points">
              <mxPoint x="933" y="480" />
              <mxPoint x="933" y="450" />
            </Array>
          </mxGeometry>
        </mxCell>
        <mxCell id="Docn9kYZ7vSpXgYzr5KD-5" style="edgeStyle=orthogonalEdgeStyle;rounded=0;orthogonalLoop=1;jettySize=auto;html=1;strokeWidth=2;fillColor=#f5f5f5;strokeColor=#666666;sketch=1;curveFitting=1;jiggle=2;exitX=1;exitY=0.5;exitDx=0;exitDy=0;" parent="1" source="Docn9kYZ7vSpXgYzr5KD-1" target="lg76CUhgI_q97KbNqbia-14" edge="1">
          <mxGeometry relative="1" as="geometry">
            <mxPoint x="680" y="570" as="sourcePoint" />
            <mxPoint x="1206" y="530" as="targetPoint" />
            <Array as="points">
              <mxPoint x="1230" y="570" />
            </Array>
          </mxGeometry>
        </mxCell>
        <mxCell id="YD12FDsrwOs8ktwwAdGp-1" value="&lt;span style=&quot;font-size: 16px; font-weight: 700;&quot;&gt;API.InventoryControl.Core.08&lt;/span&gt;" style="rounded=1;whiteSpace=wrap;html=1;fillColor=#d5e8d4;strokeColor=#82b366;sketch=1;curveFitting=1;jiggle=2;" parent="1" vertex="1">
          <mxGeometry x="430" y="630" width="240" height="60" as="geometry" />
        </mxCell>
        <mxCell id="YD12FDsrwOs8ktwwAdGp-2" style="edgeStyle=orthogonalEdgeStyle;rounded=0;orthogonalLoop=1;jettySize=auto;html=1;strokeWidth=2;fillColor=#d5e8d4;strokeColor=#82b366;sketch=1;curveFitting=1;jiggle=2;entryX=0;entryY=0.5;entryDx=0;entryDy=0;exitX=1;exitY=1;exitDx=0;exitDy=0;" parent="1" source="lg76CUhgI_q97KbNqbia-4" target="YD12FDsrwOs8ktwwAdGp-1" edge="1">
          <mxGeometry relative="1" as="geometry">
            <mxPoint x="202" y="508" as="sourcePoint" />
            <mxPoint x="420" y="690" as="targetPoint" />
            <Array as="points">
              <mxPoint x="195" y="508" />
              <mxPoint x="200" y="508" />
              <mxPoint x="200" y="660" />
            </Array>
          </mxGeometry>
        </mxCell>
        <mxCell id="YD12FDsrwOs8ktwwAdGp-3" style="edgeStyle=orthogonalEdgeStyle;rounded=0;orthogonalLoop=1;jettySize=auto;html=1;strokeWidth=2;fillColor=#d5e8d4;strokeColor=#82b366;sketch=1;curveFitting=1;jiggle=2;exitX=1;exitY=0.5;exitDx=0;exitDy=0;entryX=0.756;entryY=0.963;entryDx=0;entryDy=0;entryPerimeter=0;" parent="1" source="YD12FDsrwOs8ktwwAdGp-1" target="lg76CUhgI_q97KbNqbia-14" edge="1">
          <mxGeometry relative="1" as="geometry">
            <mxPoint x="680" y="660" as="sourcePoint" />
            <mxPoint x="1230" y="570" as="targetPoint" />
            <Array as="points">
              <mxPoint x="1280" y="660" />
              <mxPoint x="1280" y="477" />
            </Array>
          </mxGeometry>
        </mxCell>
      </root>
    </mxGraphModel>
  </diagram>
</mxfile>
